<?xml version="1.0" encoding="utf-8"?>
<!-- Generator: Adobe Illustrator 21.0.0, SVG Export Plug-In . SVG Version: 6.00 Build 0)  -->
<svg version="1.1" id="Layer_1" xmlns="http://www.w3.org/2000/svg" xmlns:xlink="http://www.w3.org/1999/xlink" x="0px" y="0px"
	 viewBox="0 0 128 97.7" style="enable-background:new 0 0 128 97.7;" xml:space="preserve">
<style type="text/css">
	.st0{fill:#FFFFFF;}
</style>
<title>mail</title>
<g id="Layer_2">
	<g id="Layer_1-2">
		<path class="st0" d="M63.5,97.6c-15,0-30,0-45,0C6.1,97.6,0,91.6,0,79.3c0-20.3,0-40.7,0-61C0,6.3,6.1,0.1,18.1,0
			C48.7,0,79.3,0,110,0c12,0,18,6.2,18,18.3c0,20.3,0,40.7,0,61c0,12.3-6.1,18.3-18.5,18.3C94.1,97.7,78.8,97.6,63.5,97.6z M64,90.4
			c15.2,0,30.3,0,45.5,0c8.5,0,11.4-3,11.4-11.5c0-20,0-40,0-59.9c0-8.8-2.9-11.7-11.7-11.7c-30.1-0.1-60.3-0.1-90.4,0
			C10,7.3,7.1,10.2,7.1,19c0,19.8,0,39.6,0,59.4c0,9.1,2.8,11.9,12,12C34,90.5,49,90.4,64,90.4L64,90.4z"/>
		<path class="st0" d="M64.2,53.2l38-34l3.7-3.3c2-1.8,4.4-3.5,6.2-0.6c0.7,1.2-0.2,4.5-1.5,5.7c-8.5,8-17.2,15.7-25.9,23.5
			c-1.2,1.1-2.5,2.1-4,3.4l27.6,26.2c1,0.9,2.4,1.7,2.8,2.8c0.5,2,0.9,4,1.1,6c-1.9-0.2-4.3,0.1-5.6-0.8c-3.1-2.2-5.7-5.1-8.4-7.8
			L75.5,52.9c-2.7,2.4-5.3,4.5-7.7,6.8s-4.9,2.3-7.4,0c-2.3-2.1-4.7-4.2-7.3-6.5c-9.8,9.1-19.2,18-28.8,26.8c-2.2,2-4.6,6.4-8.1,2.7
			s1.2-5.8,3.3-7.8c9.1-8.8,18.4-17.4,28.1-26.4L31.2,33.5c-4.5-4-8.9-8-13.4-12c-2-1.8-4.4-3.8-1.8-6.6c2.4-2.6,4.5-0.5,6.4,1.2
			c12.9,11.6,25.8,23.1,38.7,34.7C62,51.5,62.9,52.2,64.2,53.2z"/>
	</g>
</g>
</svg>
