<?xml version="1.0" encoding="utf-8"?>
<!-- Generator: Adobe Illustrator 21.0.0, SVG Export Plug-In . SVG Version: 6.00 Build 0)  -->
<svg version="1.1" id="Layer_1" xmlns="http://www.w3.org/2000/svg" xmlns:xlink="http://www.w3.org/1999/xlink" x="0px" y="0px"
	 viewBox="0 0 127.7 128.1" style="enable-background:new 0 0 127.7 128.1;" xml:space="preserve">
<style type="text/css">
	.st0{fill:#FFFFFF;}
</style>
<title>phone</title>
<g id="Layer_2">
	<g id="Layer_1-2">
		<path class="st0" d="M39.5,53.1c7.3,13.5,18,24.9,31.1,32.9c2.6,1.7,4.4,1.2,6.4-1c2.3-2.6,4.9-5,7.7-7.1c5.2-3.9,10.3-3.9,15,0.4
			c6,5.5,11.8,11.3,17.2,17.4c4.1,4.4,4.4,10,0.6,14.6c-4,5.1-8.5,9.8-13.5,13.9c-6.7,5.4-14.8,4.4-22.5,2.3
			c-17.9-5-33.1-14.7-46.4-27.3C19.6,84.5,7.4,67.6,1.5,46.8C-1.7,35.4,0,25.8,9,17.3C23,4,25.9,3.7,39.5,17.5
			c3.2,3.2,6.5,6.3,9.4,9.7c4.9,5.6,4.9,11.6-0.1,17.1C46.1,47.3,42.8,50,39.5,53.1z M91.4,121.8c3.7-1.7,7.1-2.7,9.7-4.7
			c3.4-2.6,6.2-6,9.2-9.1s2.9-6.1-0.2-9.1c-4.8-4.7-9.5-9.4-14.1-14.1c-2.9-2.9-5.8-2.8-8.7,0.1s-5.1,5.9-8.3,7.9
			c-2.2,1.4-6,2.5-7.9,1.5C54.8,86,41.5,72.8,33.2,56.5c-1.7-3.2-1-6,1.7-8.5s5.2-5.1,7.8-7.7c3-3,3.2-6,0.1-9.1
			c-2.6-2.6-5.2-5.2-7.7-7.8c-11.2-11.5-10.2-11.2-21.6-0.2c-5.7,5.5-7.3,11.7-5.6,19c0.9,3.9,2.2,7.7,3.7,11.4
			c11.9,27.6,31.8,47.7,58.6,60.9C76.8,117.7,84.2,119.4,91.4,121.8z"/>
		<path class="st0" d="M70.4,0c20,3.8,35.3,13.1,45.6,29c4.9,7.6,7.5,16.8,11,25.3c1.1,2.6,1.1,5.5-2.2,5.8
			c-1.5,0.1-4.3-2.5-4.7-4.2c-2.2-10.1-6.8-19.5-13.4-27.4c-8.5-10.2-20-17.3-32.9-20.3C72.5,7.8,70.9,7.8,70,7
			c-1.2-1-2.9-2.9-2.6-4C67.7,1.6,69.7,0.6,70.4,0z"/>
		<path class="st0" d="M69.4,23.2c15.9,1.2,33.9,19.1,34.9,33.9c0.1,1.4-1.3,3.8-2.4,4.1S98.9,60,97.6,59c-0.5-0.4-0.6-1.5-0.8-2.3
			C93.1,43.2,84.5,34.6,70.9,31c-0.8-0.2-1.9-0.3-2.3-0.8c-1-1.3-2.5-3-2.2-4.2S68.7,23.8,69.4,23.2z"/>
	</g>
</g>
</svg>
