<svg xmlns="http://www.w3.org/2000/svg" viewBox="0 0 74.8 74.92"><defs><style>.cls-1{fill:#231f20;}.cls-2{fill:#fff;}</style></defs><title>50</title><g id="Layer_2" data-name="Layer 2"><g id="Layer_1-2" data-name="Layer 1"><path class="cls-1" d="M73.13,42.77A1.28,1.28,0,0,1,72,41.33a1.31,1.31,0,0,1,2.61.28A1.34,1.34,0,0,1,73.13,42.77Z"/><path class="cls-1" d="M72,47.91a1.31,1.31,0,1,1,.65-2.54A1.31,1.31,0,0,1,72,47.91Z"/><path class="cls-1" d="M70.12,52.81a1.31,1.31,0,0,1,1-2.41,1.31,1.31,0,1,1-1,2.41Z"/><path class="cls-1" d="M67.56,57.4a1.31,1.31,0,1,1,1.36-2.24,1.31,1.31,0,1,1-1.36,2.24Z"/><path class="cls-1" d="M64.33,61.55a1.28,1.28,0,0,1-.13-1.81,1.3,1.3,0,0,1,1.81-.2,1.33,1.33,0,0,1,.21,1.88A1.34,1.34,0,0,1,64.33,61.55Z"/><path class="cls-1" d="M60.57,65.22a1.37,1.37,0,0,1,.1-1.86,1.34,1.34,0,0,1,1.85.09,1.29,1.29,0,0,1-.1,1.86A1.26,1.26,0,0,1,60.57,65.22Z"/><path class="cls-1" d="M56.27,68.25a1.29,1.29,0,0,1,.4-1.78,1.32,1.32,0,0,1,1.79.33,1.31,1.31,0,0,1-.34,1.85A1.33,1.33,0,0,1,56.27,68.25Z"/><path class="cls-1" d="M51.62,70.7a1.37,1.37,0,0,1,.62-1.76,1.34,1.34,0,0,1,1.74.62,1.29,1.29,0,0,1-.62,1.76A1.26,1.26,0,0,1,51.62,70.7Z"/><path class="cls-1" d="M46.63,72.35a1.29,1.29,0,0,1,.89-1.58,1.32,1.32,0,0,1,1.62.84,1.3,1.3,0,0,1-.87,1.68A1.34,1.34,0,0,1,46.63,72.35Z"/><path class="cls-1" d="M41.46,73.33a1.37,1.37,0,0,1,1.11-1.5,1.34,1.34,0,0,1,1.49,1.1A1.28,1.28,0,0,1,43,74.44,1.27,1.27,0,0,1,41.46,73.33Z"/><path class="cls-1" d="M36.21,73.49a1.31,1.31,0,0,1,2.62,0,1.31,1.31,0,1,1-2.62,0Z"/><path class="cls-1" d="M31,72.94a1.34,1.34,0,0,1,1.49-1.1,1.37,1.37,0,0,1,1.11,1.5,1.27,1.27,0,0,1-1.49,1.1A1.28,1.28,0,0,1,31,72.94Z"/><path class="cls-1" d="M25.9,71.61a1.32,1.32,0,0,1,1.62-.84,1.29,1.29,0,0,1,.89,1.58,1.34,1.34,0,0,1-1.65.93A1.3,1.3,0,0,1,25.9,71.61Z"/><path class="cls-1" d="M21.06,69.55a1.34,1.34,0,0,1,1.74-.62,1.37,1.37,0,0,1,.62,1.76,1.26,1.26,0,0,1-1.74.62A1.29,1.29,0,0,1,21.06,69.55Z"/><path class="cls-1" d="M16.58,66.81a1.32,1.32,0,0,1,1.79-.33,1.29,1.29,0,0,1,.4,1.78,1.33,1.33,0,0,1-1.85.41A1.31,1.31,0,0,1,16.58,66.81Z"/><path class="cls-1" d="M12.53,63.45a1.34,1.34,0,0,1,1.85-.09,1.37,1.37,0,0,1,.1,1.86,1.27,1.27,0,0,1-1.85.09A1.28,1.28,0,0,1,12.53,63.45Z"/><path class="cls-1" d="M9,59.53a1.3,1.3,0,0,1,1.81.2,1.28,1.28,0,0,1-.13,1.81,1.34,1.34,0,0,1-1.89-.13A1.33,1.33,0,0,1,9,59.53Z"/><path class="cls-1" d="M6.12,55.16A1.31,1.31,0,1,1,7.48,57.4a1.31,1.31,0,0,1-1.36-2.24Z"/><path class="cls-1" d="M3.9,50.39a1.31,1.31,0,0,1,1,2.41,1.31,1.31,0,1,1-1-2.41Z"/><path class="cls-1" d="M2.37,45.36A1.35,1.35,0,0,1,4,46.3,1.36,1.36,0,0,1,3,47.9a1.31,1.31,0,1,1-.65-2.54Z"/><path class="cls-1" d="M1.63,40.16A1.31,1.31,0,0,1,3,41.32a1.28,1.28,0,0,1-1.11,1.44,1.34,1.34,0,0,1-1.5-1.16A1.32,1.32,0,0,1,1.63,40.16Z"/><path class="cls-1" d="M1.63,34.9a1.33,1.33,0,0,1,1.25,1.36A1.38,1.38,0,0,1,1.5,37.52,1.25,1.25,0,0,1,.25,36.17,1.3,1.3,0,0,1,1.63,34.9Z"/><path class="cls-1" d="M2.37,29.7a1.37,1.37,0,0,1,1,1.52,1.3,1.3,0,0,1-1.49,1.06A1.32,1.32,0,0,1,.83,30.75,1.26,1.26,0,0,1,2.37,29.7Z"/><path class="cls-1" d="M3.9,24.67a1.32,1.32,0,0,1,.79,1.66A1.38,1.38,0,0,1,3,27.14a1.25,1.25,0,0,1-.82-1.67A1.31,1.31,0,0,1,3.9,24.67Z"/><path class="cls-1" d="M6.12,19.91a1.37,1.37,0,0,1,.55,1.76,1.31,1.31,0,1,1-2.33-1.2A1.26,1.26,0,0,1,6.12,19.91Z"/><path class="cls-1" d="M9,15.53a1.32,1.32,0,0,1,.28,1.82,1.38,1.38,0,0,1-1.83.3,1.25,1.25,0,0,1-.31-1.83A1.31,1.31,0,0,1,9,15.53Z"/><path class="cls-1" d="M12.53,11.61a1.36,1.36,0,0,1,0,1.84,1.3,1.3,0,0,1-1.83.06,1.32,1.32,0,0,1-.06-1.88A1.27,1.27,0,0,1,12.53,11.61Z"/><path class="cls-1" d="M16.58,8.25a1.33,1.33,0,0,1-.25,1.82,1.38,1.38,0,0,1-1.84-.24A1.25,1.25,0,0,1,14.73,8,1.3,1.3,0,0,1,16.58,8.25Z"/><path class="cls-1" d="M21.06,5.51a1.35,1.35,0,0,1-.51,1.76,1.3,1.3,0,0,1-1.76-.46A1.33,1.33,0,0,1,19.26,5,1.28,1.28,0,0,1,21.06,5.51Z"/><path class="cls-1" d="M25.9,3.45a1.33,1.33,0,0,1-.76,1.68,1.38,1.38,0,0,1-1.7-.77,1.25,1.25,0,0,1,.76-1.68A1.3,1.3,0,0,1,25.9,3.45Z"/><path class="cls-1" d="M31,2.12a1.35,1.35,0,0,1-1,1.54,1.3,1.3,0,0,1-1.56-1,1.32,1.32,0,0,1,1-1.61A1.28,1.28,0,0,1,31,2.12Z"/><path class="cls-1" d="M36.21,1.57A1.32,1.32,0,0,1,35,2.94a1.39,1.39,0,0,1-1.4-1.22A1.25,1.25,0,0,1,34.8.32,1.31,1.31,0,0,1,36.21,1.57Z"/><path class="cls-1" d="M41.46,1.73a1.39,1.39,0,0,1-1.4,1.22A1.31,1.31,0,0,1,40.25.32,1.25,1.25,0,0,1,41.46,1.73Z"/><path class="cls-1" d="M46.63,2.71a1.3,1.3,0,0,1-1.56,1,1.35,1.35,0,0,1-1-1.54,1.28,1.28,0,0,1,1.57-1A1.32,1.32,0,0,1,46.63,2.71Z"/><path class="cls-1" d="M51.62,4.37a1.38,1.38,0,0,1-1.7.77,1.33,1.33,0,0,1-.76-1.68,1.3,1.3,0,0,1,1.7-.77A1.25,1.25,0,0,1,51.62,4.37Z"/><path class="cls-1" d="M56.27,6.81a1.3,1.3,0,0,1-1.77.46A1.35,1.35,0,0,1,54,5.51,1.28,1.28,0,0,1,55.8,5,1.33,1.33,0,0,1,56.27,6.81Z"/><path class="cls-1" d="M60.57,9.84a1.38,1.38,0,0,1-1.84.24,1.33,1.33,0,0,1-.25-1.82A1.3,1.3,0,0,1,60.33,8,1.25,1.25,0,0,1,60.57,9.84Z"/><path class="cls-1" d="M64.33,13.51a1.31,1.31,0,0,1-1.83-.06,1.36,1.36,0,0,1,0-1.84,1.27,1.27,0,0,1,1.87,0A1.32,1.32,0,0,1,64.33,13.51Z"/><path class="cls-1" d="M67.56,17.66a1.38,1.38,0,0,1-1.83-.3A1.32,1.32,0,0,1,66,15.54a1.31,1.31,0,0,1,1.85.29A1.25,1.25,0,0,1,67.56,17.66Z"/><path class="cls-1" d="M70.12,22.25a1.31,1.31,0,0,1-1.74-.58,1.37,1.37,0,0,1,.55-1.76,1.26,1.26,0,0,1,1.78.56A1.31,1.31,0,0,1,70.12,22.25Z"/><path class="cls-1" d="M72,27.15a1.24,1.24,0,1,1,.79-.65A1.31,1.31,0,0,1,72,27.15Z"/><path class="cls-1" d="M73.13,32.29a1.3,1.3,0,0,1-1.49-1.06,1.37,1.37,0,0,1,1-1.52,1.26,1.26,0,0,1,1.55,1A1.32,1.32,0,0,1,73.13,32.29Z"/><path class="cls-1" d="M73.55,37.53a1.38,1.38,0,0,1-1.38-1.26,1.33,1.33,0,0,1,1.25-1.36,1.3,1.3,0,0,1,1.38,1.26A1.25,1.25,0,0,1,73.55,37.53Z"/></g><g id="Layer_2-2" data-name="Layer 2"><path class="cls-2" d="M34.21,74.92h0A37.53,37.53,0,0,1,37.53,0l.05.05L37.53,3a34.53,34.53,0,0,0-3.1,68.92h0Z"/></g></g></svg>