<?xml version="1.0" encoding="utf-8"?>
<!-- Generator: Adobe Illustrator 21.0.0, SVG Export Plug-In . SVG Version: 6.00 Build 0)  -->
<svg version="1.1" id="Layer_1" xmlns="http://www.w3.org/2000/svg" xmlns:xlink="http://www.w3.org/1999/xlink" x="0px" y="0px"
	 viewBox="0 0 102.4 127.6" style="enable-background:new 0 0 102.4 127.6;" xml:space="preserve">
<style type="text/css">
	.st0{fill:#FFFFFF;}
</style>
<title>adress</title>
<g id="Layer_2">
	<g id="Layer_1-2">
		<path class="st0" d="M102.4,53.3c0.4,12.2-6.2,24.4-13.7,36.1c-9.1,14.1-20.8,25.9-33.7,36.6c-2.7,2.2-4.8,2.2-7.5,0
			C29.9,111.3,14.8,94.7,5,73.6c-9.1-19.8-5.8-41.5,9.3-57.9C27.6,1.3,49.7-3.9,68.6,3C88.6,10.3,102.6,30.1,102.4,53.3z
			 M51.1,119.6c16.2-13.4,29.6-28.4,38.7-47c7.8-15.8,7.5-31.5-2.3-46C77.5,12,63,5.9,45.2,7.8C19.7,10.4,1.1,38.6,9,63
			C16.6,86.4,32.5,103.6,51.1,119.6z"/>
		<path class="st0" d="M51.1,84.2c-17.9,0-32.4-14.5-32.4-32.3C18.6,34.2,33.2,19.4,51,19.2s32.9,15,32.7,32.8
			C83.5,69.9,69,84.2,51.1,84.2z M76.4,51.8c0-13.9-11.3-25.2-25.2-25.1S26,38,26.1,51.9S37.4,77,51.3,77c0.1,0,0.1,0,0.2,0
			C65.3,76.9,76.5,65.6,76.4,51.8z"/>
	</g>
</g>
</svg>
