<svg xmlns="http://www.w3.org/2000/svg" viewBox="0 0 50.79 51.1"><defs><style>.cls-1{fill:#1a1a1a;}</style></defs><title>inkelink</title><g id="Layer_2" data-name="Layer 2"><g id="svg3003"><g id="layer1"><path id="path4157" class="cls-1" d="M3.76,0A3.71,3.71,0,0,0,0,3.66V47.45A3.71,3.71,0,0,0,3.76,51.1H47a3.71,3.71,0,0,0,3.76-3.66V3.66A3.71,3.71,0,0,0,47,0Zm7.85,8.58a4,4,0,1,1-.06,8h0a4,4,0,1,1,.1-8ZM34.23,19.16c5,0,8.82,3.3,8.82,10.39V42.78H35.38V30.43c0-3.1-1.11-5.22-3.88-5.22A4.22,4.22,0,0,0,27.56,28a5.22,5.22,0,0,0-.24,1.86V42.78H19.63s.1-20.91,0-23.08h7.68V23a7.62,7.62,0,0,1,6.91-3.8ZM27.32,23l-.06.09h.06ZM7.73,19.7h7.67V42.78H7.73V19.7Z"/></g></g></g></svg>