<svg xmlns="http://www.w3.org/2000/svg" viewBox="0 0 50.79 41.27"><defs><style>.cls-1{fill:#161616;}</style></defs><title>twitter</title><g id="Layer_2" data-name="Layer 2"><g id="svg3003"><g id="layer1"><path id="path22" class="cls-1" d="M50.79,4.89a20.83,20.83,0,0,1-6,1.64A10.45,10.45,0,0,0,49.39.76a20.83,20.83,0,0,1-6.62,2.53A10.43,10.43,0,0,0,25,12.79,29.58,29.58,0,0,1,3.54,1.91,10.43,10.43,0,0,0,6.76,15.82,10.36,10.36,0,0,1,2,14.52s0,.09,0,.13A10.43,10.43,0,0,0,10.4,24.86,10.49,10.49,0,0,1,5.7,25a10.43,10.43,0,0,0,9.73,7.24A20.92,20.92,0,0,1,2.49,36.74,21.32,21.32,0,0,1,0,36.59a29.5,29.5,0,0,0,16,4.68c19.17,0,29.64-15.88,29.64-29.65q0-.68,0-1.35a21.22,21.22,0,0,0,5.2-5.39"/></g></g></g></svg>