<svg xmlns="http://www.w3.org/2000/svg" viewBox="0 0 201.87 141.07"><title>youtube</title><g id="Layer_2" data-name="Layer 2"><g id="Слой_1" data-name="Слой 1"><g id="g5360"><g id="g4167"><path id="path4156" d="M100.93,0S37.78,0,21.84,4.13A26.61,26.61,0,0,0,4.13,21.84C0,37.78,0,70.83,0,70.83s0,33.05,4.13,48.4a25.49,25.49,0,0,0,17.71,17.71c15.94,4.13,79.1,4.13,79.1,4.13s63.16,0,79.1-4.13a24.49,24.49,0,0,0,17.71-17.71c4.13-15.94,4.13-48.4,4.13-48.4s0-33.05-4.13-49A24.49,24.49,0,0,0,180,4.13C164.09,0,100.93,0,100.93,0ZM80.87,40.73l52.53,30.1-52.53,30.1V40.73Z"/></g></g></g></g></svg>