<?xml version="1.0" encoding="utf-8"?>
<!-- Generator: Adobe Illustrator 21.0.0, SVG Export Plug-In . SVG Version: 6.00 Build 0)  -->
<svg version="1.1" id="Layer_1" xmlns="http://www.w3.org/2000/svg" xmlns:xlink="http://www.w3.org/1999/xlink" x="0px" y="0px"
	 viewBox="0 0 201.9 141.1" style="enable-background:new 0 0 201.9 141.1;" xml:space="preserve">
<style type="text/css">
	.st0{fill:#161616;}
</style>
<title>youtube</title>
<g id="Layer_2">
	<g id="Слой_1">
		<g id="g5360">
			<g id="g4167">
				<path id="path4156" class="st0" d="M100.9,0c0,0-63.2,0-79.1,4.1C13.4,6.7,6.7,13.4,4.1,21.8C0,37.8,0,70.8,0,70.8
					s0,33.1,4.1,48.4c2.4,8.6,9.1,15.3,17.7,17.7c15.9,4.1,79.1,4.1,79.1,4.1s63.2,0,79.1-4.1c8.7-2.2,15.5-9,17.7-17.7
					c4.1-15.9,4.1-48.4,4.1-48.4s0-33-4.1-49c-2.2-8.7-9-15.5-17.8-17.7C164.1,0,100.9,0,100.9,0z M80.9,40.7l52.5,30.1l-52.5,30.1
					C80.9,100.9,80.9,40.7,80.9,40.7z"/>
			</g>
		</g>
	</g>
</g>
</svg>
